<?xml version="1.0" encoding="iso-8859-1"?>
<!-- Generator: Adobe Illustrator 19.0.0, SVG Export Plug-In . SVG Version: 6.00 Build 0)  -->
<svg version="1.1" id="Layer_1" xmlns="http://www.w3.org/2000/svg" xmlns:xlink="http://www.w3.org/1999/xlink" x="0px" y="0px"
	 viewBox="0 0 511.999 511.999" style="enable-background:new 0 0 511.999 511.999;" xml:space="preserve">
<g>
	<path style="fill:#E49429;" d="M5.523,468.167h93.019c2.483,0,4.662-1.656,5.328-4.05l27.128-97.796h105.313l29.432,97.911
		c0.703,2.337,2.854,3.935,5.295,3.935h96.547c0.018,0,0.035,0,0.044,0c3.053,0,5.527-2.474,5.527-5.527
		c0-0.816-0.172-1.59-0.493-2.286L249.825,64.212c-0.716-2.312-2.858-3.891-5.281-3.891H126.8c-2.432,0-4.576,1.587-5.286,3.911
		L0.24,461.024c-0.508,1.676-0.199,3.495,0.842,4.903C2.125,467.336,3.77,468.167,5.523,468.167z M220.086,288.151h-73.049
		l21.586-77.159c3.92-13.903,7.625-30.356,11.208-46.266c0.82-3.654,1.627-7.24,2.427-10.746
		c4.742,19.061,9.957,39.654,15.186,57.07L220.086,288.151z"/>
	<path style="fill:#E49429;" d="M414.043,169.233c-3.053,0-5.527,2.474-5.527,5.527v287.88c0,3.053,2.474,5.527,5.527,5.527h89.484
		c3.053,0,5.527-2.474,5.527-5.527V174.76c0-3.053-2.474-5.527-5.527-5.527H414.043z"/>
	<path style="fill:#E49429;" d="M458.198,144.96c31.176,0,53.801-21.141,53.801-50.394c-0.679-29.871-22.561-50.734-53.212-50.734
		c-15.648,0-29.542,5.399-39.123,15.205c-8.991,9.197-13.782,21.855-13.503,35.653c-0.285,13.359,4.517,25.79,13.527,35.018
		C429.291,139.543,442.968,144.96,458.198,144.96z"/>
</g>
<g>
</g>
<g>
</g>
<g>
</g>
<g>
</g>
<g>
</g>
<g>
</g>
<g>
</g>
<g>
</g>
<g>
</g>
<g>
</g>
<g>
</g>
<g>
</g>
<g>
</g>
<g>
</g>
<g>
</g>
</svg>
