<?xml version="1.0" encoding="utf-8"?>
<!-- Generator: Adobe Illustrator 25.3.1, SVG Export Plug-In . SVG Version: 6.00 Build 0)  -->
<svg version="1.1" id="Layer_1" xmlns="http://www.w3.org/2000/svg" xmlns:xlink="http://www.w3.org/1999/xlink" x="0px" y="0px"
	 viewBox="0 0 138.28 43" style="enable-background:new 0 0 138.28 43;" xml:space="preserve">
<style type="text/css">
	.st0{fill:#1DB954;}
</style>
<g>
	<path class="st0" d="M13.7,22.98h7.72l0,11.37c0,0.89-0.59,1.68-1.44,1.91c-1.06,0.29-2.08,0.51-3.06,0.66
		c-1.41,0.21-2.84,0.31-4.31,0.31c-3.74,0-6.6-1.1-8.57-3.3c-1.97-2.2-2.96-5.35-2.96-9.47c0-4,1.14-7.12,3.43-9.36
		s5.46-3.36,9.52-3.36c1.72,0,3.4,0.23,5.04,0.7c1.27,0.36,1.92,1.78,1.42,3l0,0c-0.43,1.05-1.6,1.62-2.67,1.27
		c-1.24-0.4-2.51-0.6-3.81-0.6c-2.27,0-4.09,0.76-5.46,2.29C7.17,19.95,6.48,22,6.48,24.58c0,2.69,0.55,4.74,1.65,6.16
		s2.7,2.13,4.81,2.13c1.1,0,2.21-0.11,3.34-0.34v-5.17H13.6c-1.12,0-2.02-0.9-2.02-2.02V25.1C11.59,23.93,12.53,22.98,13.7,22.98z"
		/>
	<path class="st0" d="M37.48,17.59L37.48,17.59c0.95,0,1.69,0.81,1.62,1.75l-0.13,1.56c-0.07,0.86-0.78,1.52-1.64,1.51l-0.02,0
		c-1.65,0-2.94,0.42-3.86,1.27c-0.92,0.85-1.38,2.03-1.38,3.56v7.68c0,1.09-0.88,1.97-1.97,1.97h-1.18c-1.12,0-2.02-0.91-2.02-2.02
		V19.54c0-0.88,0.71-1.59,1.59-1.59h0.88c0.85,0,1.58,0.58,1.78,1.4l0.43,1.78h0.25c0.59-1.06,1.38-1.92,2.38-2.57
		C35.22,17.92,36.31,17.59,37.48,17.59z"/>
	<path class="st0" d="M87.73,35.58l-5.51-14.47c-0.58-1.53,0.55-3.17,2.18-3.17h0.49c0.91,0,1.72,0.58,2.02,1.45l3.17,9.35
		c0.41,1.37,0.66,2.66,0.76,3.88h0.1c0.06-1.08,0.31-2.38,0.76-3.88l3.2-9.47c0.27-0.79,1.01-1.32,1.84-1.32h1.11
		c1.4,0,2.37,1.4,1.87,2.71L94.03,35.6c-0.3,0.78-1.04,1.3-1.88,1.3h-2.51C88.8,36.9,88.04,36.38,87.73,35.58z"/>
	<path class="st0" d="M112.05,37.24c-3.05,0-5.44-0.84-7.15-2.53c-1.72-1.68-2.58-4.07-2.58-7.15c0-3.18,0.79-5.63,2.38-7.36
		c1.59-1.73,3.78-2.6,6.59-2.6c2.68,0,4.76,0.76,6.25,2.29c1.49,1.53,2.24,3.63,2.24,6.32v0.78c0,0.96-0.77,1.73-1.73,1.73h-10.49
		c0.06,1.47,0.49,2.62,1.31,3.44c0.81,0.82,1.95,1.24,3.42,1.24c1.14,0,2.22-0.12,3.24-0.36c0.28-0.07,0.56-0.14,0.85-0.23
		c1.16-0.35,2.34,0.51,2.34,1.72v0.34c0,0.65-0.39,1.24-0.99,1.47c-0.61,0.24-1.25,0.43-1.91,0.57
		C114.78,37.13,113.53,37.24,112.05,37.24z M111.32,21.27c-1.1,0-1.95,0.35-2.58,1.04c-0.62,0.69-0.98,1.68-1.07,2.96h7.25
		c-0.02-1.28-0.36-2.26-1-2.96C113.29,21.62,112.42,21.27,111.32,21.27z"/>
	<path class="st0" d="M137.2,31.27c0,1.94-0.68,3.42-2.03,4.44c-1.35,1.02-3.37,1.53-6.06,1.53c-1.38,0-2.55-0.09-3.53-0.28
		c-0.48-0.09-0.95-0.21-1.4-0.34c-0.79-0.24-1.33-0.97-1.33-1.79v-0.47c0-1.16,1.12-1.98,2.23-1.64c0.33,0.1,0.67,0.2,1.02,0.28
		c1.2,0.31,2.26,0.46,3.18,0.46c1.88,0,2.81-0.54,2.81-1.63c0-0.41-0.12-0.74-0.37-0.99s-0.68-0.54-1.29-0.86
		c-0.61-0.32-1.42-0.7-2.44-1.13c-1.46-0.61-2.53-1.18-3.21-1.69c-0.68-0.52-1.18-1.12-1.49-1.79c-0.31-0.67-0.47-1.5-0.47-2.48
		c0-1.68,0.65-2.99,1.96-3.91c1.31-0.92,3.16-1.38,5.55-1.38c1.69,0,3.35,0.27,4.97,0.82c0.93,0.31,1.41,1.35,1.03,2.26l-0.28,0.67
		c-0.33,0.8-1.24,1.2-2.05,0.9c-0.42-0.16-0.83-0.3-1.23-0.42c-0.82-0.26-1.67-0.39-2.53-0.39c-1.53,0-2.29,0.41-2.29,1.24
		c0,0.46,0.25,0.86,0.74,1.2s1.57,0.84,3.23,1.51c1.48,0.6,2.57,1.16,3.25,1.68c0.69,0.52,1.2,1.12,1.53,1.8
		S137.2,30.33,137.2,31.27z"/>
	<path class="st0" d="M79.3,23.63c-0.74-1.48-1.81-2.62-3.2-3.41c-0.81-0.46-1.69-0.79-2.64-0.97l0-5.39c0-5.26-3.63-9.55-8.09-9.55
		h-9.86c-4.46,0-8.09,4.29-8.09,9.55v5.39c-1.82,0.35-3.3,1.14-4.45,2.36c-1.62,1.72-2.42,4.12-2.42,7.22
		c0,1.99,0.37,3.73,1.12,5.22c0.74,1.49,1.81,2.64,3.2,3.43c1.39,0.8,2.99,1.2,4.82,1.2c2.9,0,5.17-0.87,6.79-2.61
		c1.63-1.74,2.44-4.15,2.44-7.24c0-1.99-0.38-3.72-1.12-5.2c-0.75-1.48-1.82-2.62-3.21-3.41c-0.86-0.49-1.81-0.83-2.83-1.01v-5.35
		c0-2.83,1.72-5.21,3.75-5.21h9.86c2.03,0,3.75,2.39,3.75,5.21v5.35c-1.91,0.33-3.46,1.13-4.66,2.41c-1.62,1.72-2.43,4.12-2.43,7.22
		c0,1.99,0.38,3.73,1.12,5.22c0.75,1.49,1.82,2.64,3.21,3.43c1.39,0.8,2.99,1.2,4.81,1.2c2.91,0,5.17-0.87,6.8-2.61
		c1.63-1.74,2.44-4.15,2.44-7.24C80.42,26.85,80.05,25.11,79.3,23.63z M52.72,24.62c0.61,0.94,0.92,2.34,0.92,4.22
		c0,1.89-0.3,3.31-0.91,4.26c-0.61,0.95-1.6,1.43-2.97,1.43c-1.39,0-2.4-0.48-3.01-1.44c-0.62-0.96-0.93-2.38-0.93-4.26
		c0-1.89,0.3-3.3,0.92-4.23c0.61-0.93,1.61-1.4,2.98-1.4C51.11,23.21,52.11,23.68,52.72,24.62z M74.22,33.1
		c-0.6,0.95-1.6,1.43-2.97,1.43c-1.39,0-2.39-0.48-3.01-1.44c-0.61-0.96-0.92-2.38-0.92-4.26c0-1.89,0.3-3.3,0.92-4.23
		c0.61-0.93,1.6-1.4,2.98-1.4c1.39,0,2.39,0.47,3,1.41c0.61,0.94,0.92,2.34,0.92,4.22C75.13,30.73,74.83,32.14,74.22,33.1z"/>
	<ellipse class="st0" cx="71.32" cy="28.97" rx="5.24" ry="7.21"/>
	<ellipse class="st0" cx="50.35" cy="28.97" rx="5.24" ry="7.21"/>
</g>
</svg>
